<svg width="200" height="200" viewBox="0 0 200 200" fill="none" xmlns="http://www.w3.org/2000/svg">
  <defs>
    <linearGradient id="grad" x1="30" y1="30" x2="170" y2="170" gradientUnits="userSpaceOnUse">
      <stop stop-color="#ffcb2f"/>
      <stop offset="1" stop-color="#f09600"/>
    </linearGradient>
    <linearGradient id="shine" x1="50" y1="50" x2="150" y2="150" gradientUnits="userSpaceOnUse">
      <stop stop-color="#ffd76b" stop-opacity="0.85"/>
      <stop offset="1" stop-color="#ffb100" stop-opacity="0.6"/>
    </linearGradient>
    <filter id="shadow" x="-10%" y="-10%" width="120%" height="120%" color-interpolation-filters="sRGB">
      <feDropShadow dx="0" dy="6" stdDeviation="8" flood-color="#d98900" flood-opacity="0.45"/>
    </filter>
  </defs>
  <g filter="url(#shadow)">
    <path d="M100 8l71.5 41.3v101.4L100 192l-71.5-41.3V49.3L100 8z" fill="url(#grad)"/>
    <path d="M34 69l66-38 66 38v62l-66 38-66-38V69z" fill="url(#shine)"/>
    <path d="M62 56l36-20 36 20-9 16-27-15-27 15-9-16z" fill="#fff1c7" opacity="0.55"/>
    <path d="M60 88c0-3.3 2.7-6 6-6h38c16 0 26 10.2 26 24.5 0 16-11.8 27.5-29.6 27.5H82v18H60V88zm22 13.5V118h16.2c6.5 0 10.8-4 10.8-9.6 0-6-4.1-6.9-9.7-6.9H82z" fill="#7a4a00"/>
  </g>
</svg>
